# xmcd
#
# Track frame offsets:
#	187
#	24387
#	47100
#	64020
#	90952
#	118600
#	135705
#	160705
#	185802
#	205712
#	227555
#	246612
#	267347
#	298787
#
# Disc length: 4319 seconds
#
# Revision: 1
# Processed by: cddbd v1.5.1PL0 Copyright (c) Steve Scherf et al.
# Submitted via: CDex 1.50Beta5
#
DISCID=c710dd0e
DTITLE=浜田麻里 - Tears
DYEAR=1992
DGENRE=Rock
TTITLE0=浜田麻里/OPEN YOUR HEART
TTITLE1=GEN/メモリーズ
TTITLE2=小泉今日子/夜明けのMEW
TTITLE3=PAN PAN HOUSE/MEW
TTITLE4=UP-BEAT/Sister Tomorrow
TTITLE5=レピッシュ/パーティ
TTITLE6=MINKS,THE/電話してくれ
TTITLE7=JUN SKY WALKER(S)/夢をつけて
TTITLE8=GO-BANG’S/ル・ララ
TTITLE9=5TEARDROPS,The/夢見るJACK&BETTY
TTITLE10=A.R.B./さらば相棒
TTITLE11=東京少年/陽のあたる坂道で
TTITLE12=FLYING KIDS/幸せであるように
TTITLE13=HAN-ИA/Melody
EXTD=
EXTT0=
EXTT1=
EXTT2=
EXTT3=
EXTT4=
EXTT5=
EXTT6=
EXTT7=
EXTT8=
EXTT9=
EXTT10=
EXTT11=
EXTT12=
EXTT13=
PLAYORDER=
